<?xml version="1.0" encoding="utf-8"?>
<!-- Generator: Adobe Illustrator 25.0.0, SVG Export Plug-In . SVG Version: 6.00 Build 0)  -->
<svg version="1.1" id="圖層_1" xmlns="http://www.w3.org/2000/svg" xmlns:xlink="http://www.w3.org/1999/xlink" x="0px" y="0px"
	 viewBox="0 0 34 34" style="enable-background:new 0 0 34 34;" xml:space="preserve">
<style type="text/css">
	.st0{fill:#A5D6FF;}
	.st1{fill:#8CC4FF;}
	.st2{fill:#FFFFFF;}
	.st3{fill:#F0F1F1;}
	.st4{fill:#93D3E2;}
	.st5{fill:#A2E9FD;}
	.st6{fill:#353B40;}
</style>
<g>
	<g>
		<g id="shopping_cart_1_">
			<circle class="st0" cx="17" cy="17" r="15"/>
		</g>
	</g>
	<path class="st1" d="M18.7,14.6l-2.7-3l-4.8,2.6l3.3,3.3l-6.6-0.3L17.8,32c6.9-0.4,12.5-5.4,13.8-11.9l-9.2-6.8L18.7,14.6z"/>
	<g id="Eye_1_">
		<g>
			<path class="st2" d="M26.2,17c0,0-3.7,5.9-9.1,5.9c-5.5,0-9.5-5.9-9.2-5.9c0,0,3.9-5.9,9.2-5.9C21.9,11.1,26.2,17,26.2,17z"/>
			<path class="st3" d="M17,11.1C17,11.1,17,11.1,17,11.1l0,11.8c0,0,0,0,0,0c5.5,0,9.1-5.9,9.1-5.9S21.9,11.1,17,11.1z"/>
		</g>
		<g>
			<circle class="st4" cx="17" cy="17" r="4"/>
			<path class="st5" d="M13,17c0,2.2,1.8,4,4,4v-8C14.8,13,13,14.8,13,17z"/>
		</g>
		<g>
			<circle cx="17" cy="17" r="2.7"/>
			<path class="st6" d="M14.3,17c0,1.5,1.2,2.7,2.7,2.7v-5.5C15.5,14.3,14.3,15.5,14.3,17z"/>
		</g>
		<g>
			<circle class="st3" cx="19.4" cy="15.1" r="1.6"/>
		</g>
	</g>
</g>
</svg>
