<?xml version="1.0" encoding="utf-8"?>
<!-- Generator: Adobe Illustrator 25.0.0, SVG Export Plug-In . SVG Version: 6.00 Build 0)  -->
<svg version="1.1" id="圖層_1" xmlns="http://www.w3.org/2000/svg" xmlns:xlink="http://www.w3.org/1999/xlink" x="0px" y="0px"
	 viewBox="0 0 34 34" style="enable-background:new 0 0 34 34;" xml:space="preserve">
<style type="text/css">
	.st0{fill:#A5D6FF;}
	.st1{fill:#8CC4FF;}
	.st2{fill:#FFFFFF;}
	.st3{fill:#424242;}
	.st4{fill:#212121;}
	.st5{fill:#93D3E2;}
	.st6{fill:#A2E9FD;}
</style>
<g>
	<path class="st0" d="M32,17c0,1.6-0.2,3.1-0.7,4.5C29.4,27.6,23.7,32,17,32c-0.3,0-0.5,0-0.8,0C8.3,31.6,2,25,2,17
		C2,8.7,8.7,2,17,2C25.3,2,32,8.7,32,17z"/>
	<path class="st1" d="M31.3,21.5C29.4,27.6,23.7,32,17,32c-0.3,0-0.5,0-0.8,0L9.6,22c-0.2-0.1-0.3-0.3-0.4-0.5l0,0h0
		c0-0.1-0.1-0.3-0.1-0.4v-0.6h1.7h0H9.2v-7.5c0-1,0.8-1.9,1.8-2v-0.4c0-0.2,0.2-0.4,0.4-0.4h2.4c0,0,0.1,0,0.1,0c0,0,0.1,0,0.1,0.1
		l0,0c0,0,0.1,0.1,0.1,0.1l0.3,0.3c0.3-0.7,1-1.3,1.8-1.3h2.9c0.7,0,1.2,0.3,1.6,0.8l0.5,0.4V10c0-0.2,0.2-0.4,0.4-0.4h1.4
		c0.2,0,0.3,0.1,0.3,0.2l1.2,1.6c0.2,0.2,0.4,0.4,0.5,0.7L31.3,21.5z"/>
	<g>
		<rect x="9.1" y="12.8" width="15.8" height="7.5"/>
		<path class="st2" d="M23.5,22.3h-13c-0.8,0-1.4-0.6-1.4-1.4v-0.5h15.8v0.5C24.9,21.6,24.3,22.3,23.5,22.3z"/>
		<path d="M14,10.9h-3.1v-0.4c0-0.2,0.2-0.4,0.4-0.4h2.4c0.2,0,0.4,0.2,0.4,0.4L14,10.9L14,10.9z"/>
		<path d="M23.1,10.9h-2.2v-1c0-0.2,0.2-0.4,0.4-0.4h1.4c0.2,0,0.4,0.2,0.4,0.4V10.9z"/>
		<rect x="9.9" y="13.4" class="st3" width="1.4" height="6.4"/>
		<path class="st2" d="M22.9,10.9h-2.2c-0.2-0.9-1-1.5-1.9-1.5H16c-0.9,0-1.7,0.7-1.9,1.5h-3c-1.1,0-2,0.9-2,2l0,0h15.8l0,0
			C24.9,11.8,24,10.9,22.9,10.9z"/>
		<g>
			<path class="st4" d="M19.4,11.7h-3.9c-0.4,0-0.7-0.3-0.7-0.7v-0.5c0-0.4,0.3-0.7,0.7-0.7h3.9c0.4,0,0.7,0.3,0.7,0.7v0.5
				C20.1,11.4,19.8,11.7,19.4,11.7z"/>
			<path class="st3" d="M19.2,11.5h-3.6c-0.3,0-0.5-0.2-0.5-0.5v-0.4c0-0.3,0.2-0.5,0.5-0.5h3.6c0.3,0,0.5,0.2,0.5,0.5V11
				C19.8,11.3,19.5,11.5,19.2,11.5z"/>
			<path class="st2" d="M18.2,11.1h-1.5c-0.1,0-0.2-0.1-0.2-0.2v-0.2c0-0.1,0.1-0.2,0.2-0.2h1.5c0.1,0,0.2,0.1,0.2,0.2v0.2
				C18.4,11,18.3,11.1,18.2,11.1z"/>
		</g>
		<circle class="st3" cx="17.5" cy="16.6" r="4.2"/>
		<circle class="st4" cx="17.5" cy="16.6" r="3.9"/>
		<circle class="st3" cx="17.5" cy="16.6" r="3.2"/>
		<circle class="st5" cx="17.5" cy="16.6" r="2.8"/>
		<circle class="st6" cx="17.5" cy="16.6" r="2.1"/>
		<circle class="st2" cx="17.3" cy="16.2" r="0.3"/>
		<circle class="st2" cx="16.2" cy="15.5" r="0.7"/>
	</g>
</g>
</svg>
