<?xml version="1.0" encoding="utf-8"?>
<!-- Generator: Adobe Illustrator 25.0.0, SVG Export Plug-In . SVG Version: 6.00 Build 0)  -->
<svg version="1.1" id="圖層_1" xmlns="http://www.w3.org/2000/svg" xmlns:xlink="http://www.w3.org/1999/xlink" x="0px" y="0px"
	 viewBox="0 0 34 34" style="enable-background:new 0 0 34 34;" xml:space="preserve">
<style type="text/css">
	.st0{fill:#A5D6FF;}
	.st1{fill:#8CC4FF;}
	.st2{fill:#424242;}
	.st3{fill:#212121;}
	.st4{fill:#A2E9FD;}
	.st5{fill:#FFFFFF;}
	.st6{fill:#EEEEEF;}
	.st7{fill:#C8C7CD;}
</style>
<g>
	<g id="shopping_cart_1_">
		<circle class="st0" cx="17" cy="17" r="15"/>
	</g>
	<path class="st1" d="M18.7,14.6l-3.9-3.9l-3.5,3.5l3.3,3.3l-6.5,4.7l9.8,9.8c6.9-0.4,12.5-5.4,13.8-11.9L23,11.4L18.7,14.6z"/>
	<g id="binoculars">
		<g>
			<path class="st2" d="M16.5,13.2l-0.6,0.4l-0.3,3.9l1.5-1.2V13C16.8,13,16.6,13.1,16.5,13.2z"/>
			<path class="st3" d="M18.1,13.5l-0.6-0.4C17.4,13.1,17.2,13,17,13v3.2l1.5,1.2L18.1,13.5z"/>
		</g>
		<path class="st2" d="M14.6,19.6L14.6,19.6c-0.4-0.4-0.4-1,0-1.4l1.7-1.7c0.4-0.4,1-0.4,1.3,0l0,0c0.4,0.4,0.4,1,0,1.3L16,19.6
			C15.6,19.9,15,19.9,14.6,19.6z"/>
		<path class="st2" d="M19.4,19.5L19.4,19.5c-0.4,0.4-1,0.4-1.4,0l-1.7-1.7c-0.4-0.4-0.4-1,0-1.3l0,0c0.4-0.4,1-0.4,1.3,0l1.7,1.7
			C19.8,18.6,19.8,19.2,19.4,19.5z"/>
		<path class="st2" d="M24.8,14.8L24.8,14.8l-2.3-3.5l0,0c-0.3-0.7-1.1-1.2-1.9-1.2c-1.2,0-2.1,0.9-2.1,2.1c0,0.1,0.4,4.2,0.4,4.2
			l0,0c0,1.8,1.4,3.2,3.2,3.2s3.2-1.4,3.2-3.2C25.3,15.8,25.1,15.3,24.8,14.8z"/>
		<path class="st2" d="M15.5,12.2c0-1.2-0.9-2.1-2.1-2.1c-0.8,0-1.6,0.5-1.9,1.2l0,0l-2.3,3.5l0,0c-0.3,0.5-0.4,1-0.4,1.6
			c0,1.8,1.4,3.2,3.2,3.2s3.2-1.4,3.2-3.2l0,0C15.1,16.4,15.5,12.4,15.5,12.2z"/>
		<g>
			<path class="st2" d="M13,10.6c-1.1,0-2.1,0.7-2.6,1.6h0l-3.1,4.8l0,0c-0.4,0.6-0.6,1.4-0.6,2.2c0,1.9,1.3,3.5,3,4.1l4.1-12.5
				C13.6,10.6,13.3,10.6,13,10.6z"/>
			<path class="st3" d="M15.9,13.5c0-1.3-0.9-2.4-2.1-2.8L9.7,23.2c0.4,0.1,0.9,0.2,1.3,0.2c2.4,0,4.3-1.9,4.3-4.3l0,0
				C15.4,19.1,15.9,13.6,15.9,13.5z"/>
		</g>
		<g>
			<path class="st2" d="M18.1,13.5c0,0.2,0.5,5.7,0.5,5.7h0c0,2.4,1.9,4.3,4.3,4.3c0.5,0,0.9-0.1,1.3-0.2l-4.1-12.5
				C19,11,18.1,12.1,18.1,13.5z"/>
			<path class="st3" d="M27.3,19.1c0-0.8-0.2-1.5-0.6-2.2l0,0l-3.1-4.8h0c-0.5-0.9-1.4-1.6-2.6-1.6c-0.3,0-0.6,0-0.8,0.1l4.1,12.5
				C26,22.7,27.3,21,27.3,19.1z"/>
		</g>
		<g>
			<path class="st3" d="M11.1,23.4c-2.4,0-4.3-1.9-4.3-4.3c0-2.4,1.9-4.3,4.3-4.3s4.3,1.9,4.3,4.3C15.4,21.5,13.5,23.4,11.1,23.4z"
				/>
			<path class="st4" d="M11.1,22.2c-1.7,0-3.1-1.4-3.1-3.1c0-1.7,1.4-3.1,3.1-3.1c1.7,0,3.1,1.4,3.1,3.1
				C14.2,20.8,12.8,22.2,11.1,22.2z"/>
			<path class="st3" d="M22.9,23.4c-2.4,0-4.3-1.9-4.3-4.3c0-2.4,1.9-4.3,4.3-4.3c2.4,0,4.3,1.9,4.3,4.3
				C27.3,21.5,25.3,23.4,22.9,23.4z"/>
			<path class="st4" d="M22.9,22.2c-1.7,0-3.1-1.4-3.1-3.1c0-1.7,1.4-3.1,3.1-3.1s3.1,1.4,3.1,3.1S24.7,22.2,22.9,22.2z"/>
			<g>
				<circle class="st4" cx="11.1" cy="19.1" r="3.3"/>
				<circle class="st5" cx="11.1" cy="19.1" r="2.4"/>
				<circle class="st5" cx="10.9" cy="18.7" r="0.4"/>
			</g>
			<g>
				<circle class="st4" cx="22.9" cy="19.1" r="3.3"/>
				<circle class="st5" cx="22.9" cy="19.1" r="2.4"/>
				<circle class="st5" cx="22.7" cy="18.7" r="0.4"/>
			</g>
		</g>
		<path class="st6" d="M16.8,17.7c-0.1-0.1-0.1-0.4,0-0.5s0.4-0.1,0.5,0L16.8,17.7z"/>
		<path class="st7" d="M17.3,17.2c0.1,0.1,0.1,0.4,0,0.5s-0.4,0.1-0.5,0L17.3,17.2z"/>
	</g>
</g>
</svg>
