<?xml version="1.0" encoding="utf-8"?>
<!-- Generator: Adobe Illustrator 25.0.0, SVG Export Plug-In . SVG Version: 6.00 Build 0)  -->
<svg version="1.1" id="圖層_1" xmlns="http://www.w3.org/2000/svg" xmlns:xlink="http://www.w3.org/1999/xlink" x="0px" y="0px"
	 viewBox="0 0 34 34" style="enable-background:new 0 0 34 34;" xml:space="preserve">
<style type="text/css">
	.st0{fill:#A5D6FF;}
	.st1{fill:#8CC4FF;}
	.st2{fill:#FFFFFF;}
	.st3{fill:#F0F1F1;}
	.st4{fill:#424242;}
	.st5{fill:#FFD25A;}
	.st6{fill:#FFB43C;}
	.st7{fill:#CDF2FD;}
	.st8{fill:#B8DAE2;}
</style>
<path class="st0" d="M32,17c0,1.6-0.2,3.1-0.7,4.5C29.4,27.6,23.7,32,17,32c-0.3,0-0.5,0-0.8,0C8.3,31.6,2,25,2,17C2,8.7,8.7,2,17,2
	C25.3,2,32,8.7,32,17z"/>
<path class="st1" d="M32,16.9c0-0.9-0.1-1.8-0.3-2.7C28.2,10.7,25.5,8,25.5,8c-0.1-0.1-0.2-0.2-0.3-0.1l-1.7,0.5
	c-0.2,0-0.2,0.2-0.2,0.3l0.1,0.3l-10.1,2.8c-0.2,0.1-0.4,0.2-0.3,0.4l0.3,1l-4.3,1.2c0,0-0.2-0.2-0.3-0.2c-0.1-0.1-0.2-0.2-0.4-0.1
	l-1,0.3C7.1,14.1,7,14.3,7,14.5c0.8,3.1,0.8,2.9,0.9,3c0,0,4.6,4.6,4.6,4.6c-2.3,3.4-2.3,3.2-2.3,3.5c0,0.1,0.1,0.2,0.2,0.3
	c0,0,2.6,2.6,6,6c0.2,0,0.3,0,0.5,0C25.3,31.9,32,25.2,32,16.9z"/>
<g>
	<g>
		<rect x="8.4" y="13.6" transform="matrix(0.9648 -0.2631 0.2631 0.9648 -3.4864 3.5446)" class="st2" width="6.1" height="2.5"/>
		<rect x="8.6" y="14.8" transform="matrix(0.9648 -0.2631 0.2631 0.9648 -3.638 3.6084)" class="st3" width="6.1" height="1.2"/>
		<path class="st4" d="M9.5,16.9c0,0.2-0.1,0.3-0.3,0.4l-1,0.3c-0.2,0.1-0.4,0-0.4-0.2L7,14.5c0-0.2,0.1-0.3,0.3-0.4l1-0.3
			c0.2-0.1,0.4,0,0.4,0.2L9.5,16.9z"/>
		<path d="M9.1,15.5l-1.7,0.5l0.4,1.4c0,0.2,0.2,0.2,0.4,0.2l1-0.3c0.2-0.1,0.3-0.2,0.3-0.4L9.1,15.5z"/>
		<path class="st4" d="M25.7,13.5l-11.1,3c-0.2,0.1-0.4,0-0.5-0.1l-1.2-4.4c0-0.1,0.1-0.3,0.3-0.4l11.1-3L25.7,13.5z"/>
		<path d="M25,11.1l-11.5,3.1l0.6,2.2c0,0.1,0.3,0.2,0.5,0.1l11.1-3L25,11.1z"/>
		<path class="st2" d="M27,13.5c0,0.1-0.1,0.3-0.2,0.3l-1.7,0.5c-0.2,0-0.3,0-0.3-0.2l-1.5-5.5c0-0.1,0.1-0.3,0.2-0.3l1.7-0.5
			c0.2,0,0.3,0,0.3,0.2L27,13.5z"/>
		<path class="st3" d="M26.3,10.8L24,11.4l0.7,2.7c0,0.1,0.2,0.2,0.3,0.2l1.7-0.5c0.2,0,0.2-0.2,0.2-0.3L26.3,10.8z"/>
	</g>
	<path class="st5" d="M17.1,26c-0.3,0-0.5-0.2-0.5-0.5v-9.4c0-0.3,0.2-0.5,0.5-0.5c0.3,0,0.5,0.2,0.5,0.5v9.4
		C17.5,25.8,17.3,26,17.1,26z"/>
	<path class="st6" d="M17.1,15.6V26c0.3,0,0.5-0.2,0.5-0.5v-9.4C17.5,15.9,17.3,15.6,17.1,15.6L17.1,15.6z"/>
	<path class="st6" d="M23.4,26c-0.2,0-0.3-0.1-0.4-0.2l-5.8-8.4c-0.1-0.1-0.1-0.2-0.1-0.3c0-0.1,0.1-0.2,0.2-0.3
		c0.1-0.1,0.2-0.1,0.3-0.1c0.2,0,0.3,0.1,0.4,0.2l5.8,8.4c0.1,0.1,0.1,0.2,0.1,0.3c0,0.1-0.1,0.2-0.2,0.3C23.6,26,23.5,26,23.4,26z"
		/>
	<path class="st5" d="M10.7,26c-0.1,0-0.2,0-0.3-0.1c-0.1-0.1-0.2-0.2-0.2-0.3c0-0.1,0-0.2,0.1-0.3l5.8-8.4c0.1-0.1,0.2-0.2,0.4-0.2
		c0.1,0,0.2,0,0.3,0.1c0.1,0.1,0.2,0.2,0.2,0.3c0,0.1,0,0.2-0.1,0.3l-5.8,8.4C11,25.9,10.9,26,10.7,26z"/>
	<circle class="st7" cx="17.1" cy="16.1" r="1.6"/>
	<path class="st8" d="M17.1,14.6v3.1c0.9,0,1.6-0.7,1.6-1.6C18.6,15.2,17.9,14.6,17.1,14.6L17.1,14.6z"/>
</g>
</svg>
