<?xml version="1.0" encoding="utf-8"?>
<!-- Generator: Adobe Illustrator 16.0.0, SVG Export Plug-In . SVG Version: 6.00 Build 0)  -->
<!DOCTYPE svg PUBLIC "-//W3C//DTD SVG 1.1//EN" "http://www.w3.org/Graphics/SVG/1.1/DTD/svg11.dtd">
<svg version="1.1" id="圖層_1" xmlns="http://www.w3.org/2000/svg" xmlns:xlink="http://www.w3.org/1999/xlink" x="0px" y="0px"
	 width="34.016px" height="34.016px" viewBox="0 0 34.016 34.016" enable-background="new 0 0 34.016 34.016" xml:space="preserve">
<g>
	<g>
		<g id="shopping_cart_1_">
			<circle fill="#153768" cx="17.008" cy="17.008" r="15"/>
		</g>
	</g>
	<path fill="#0E2D5B" d="M18.672,14.554l-2.695-2.952l-4.76,2.584l3.34,3.34l-6.632-0.33l9.923,14.786
		c6.859-0.379,12.49-5.364,13.848-11.918l-9.25-6.837L18.672,14.554z"/>
	<g id="Eye_1_">
		<g>
			<path fill="#FFFFFF" d="M26.175,17.008c0,0-3.657,5.896-9.127,5.896c-5.466,0-9.484-5.896-9.191-5.896
				c0,0,3.925-5.898,9.191-5.898C21.859,11.11,26.175,17.008,26.175,17.008z"/>
			<path fill="#F0F1F1" d="M17.048,11.11c-0.014,0-0.026,0.002-0.04,0.002v11.795c0.014,0,0.026,0,0.04,0
				c5.47,0,9.127-5.897,9.127-5.897S21.859,11.11,17.048,11.11z"/>
		</g>
		<g>
			<circle fill="#93D3E2" cx="17.049" cy="17.008" r="4.008"/>
			<path fill="#A2E9FD" d="M13.041,17.008c0,2.199,1.772,3.984,3.968,4.006v-8.012C14.813,13.024,13.041,14.809,13.041,17.008z"/>
		</g>
		<g>
			<circle cx="17.049" cy="17.008" r="2.737"/>
			<path fill="#353B40" d="M14.311,17.008c0,1.496,1.203,2.711,2.696,2.732v-5.468C15.514,14.295,14.311,15.51,14.311,17.008z"/>
		</g>
		<g>
			<circle fill="#F0F1F1" cx="19.44" cy="15.147" r="1.57"/>
		</g>
	</g>
</g>
</svg>
