<?xml version="1.0" encoding="utf-8"?>
<!-- Generator: Adobe Illustrator 16.0.0, SVG Export Plug-In . SVG Version: 6.00 Build 0)  -->
<!DOCTYPE svg PUBLIC "-//W3C//DTD SVG 1.1//EN" "http://www.w3.org/Graphics/SVG/1.1/DTD/svg11.dtd">
<svg version="1.1" id="圖層_1" xmlns="http://www.w3.org/2000/svg" xmlns:xlink="http://www.w3.org/1999/xlink" x="0px" y="0px"
	 width="34.016px" height="34.016px" viewBox="0 0 34.016 34.016" enable-background="new 0 0 34.016 34.016" xml:space="preserve">
<g>
	<path fill="#153768" d="M32.007,17.008c0,1.577-0.242,3.097-0.693,4.522c-1.92,6.074-7.598,10.477-14.307,10.477
		c-0.26,0-0.52-0.006-0.775-0.02C8.308,31.585,2.007,25.033,2.007,17.008c0-8.283,6.717-15,15-15
		C25.292,2.008,32.007,8.725,32.007,17.008z"/>
	<path fill="#0E2D5B" d="M31.314,21.531c-1.92,6.074-7.598,10.477-14.307,10.477c-0.26,0-0.52-0.006-0.775-0.02l-6.611-9.965
		c-0.16-0.146-0.285-0.33-0.359-0.539L9.259,21.48h0.002c-0.049-0.141-0.076-0.291-0.076-0.447V20.41h1.688h0.002H9.185v-7.511
		c0-1.02,0.771-1.856,1.758-1.951v-0.391c0-0.201,0.162-0.364,0.363-0.364h2.383c0.045,0,0.086,0.008,0.125,0.021
		c0.039,0.015,0.074,0.036,0.105,0.062l0,0c0.027,0.023,0.051,0.05,0.07,0.079l0.262,0.293c0.279-0.737,0.988-1.262,1.818-1.262
		h2.85c0.654,0,1.232,0.325,1.584,0.823l0.465,0.409V9.974c0-0.215,0.174-0.389,0.387-0.389h1.416c0.154,0,0.287,0.091,0.348,0.221
		l1.154,1.639c0.207,0.188,0.375,0.421,0.486,0.683L31.314,21.531z"/>
	<g>
		<rect x="9.113" y="12.831" width="15.791" height="7.483"/>
		<path fill="#FFFFFF" d="M23.496,22.269H10.521c-0.779,0-1.408-0.631-1.408-1.408v-0.545h15.791v0.545
			C24.904,21.638,24.273,22.269,23.496,22.269z"/>
		<path d="M13.998,10.887h-3.119v-0.369c0-0.212,0.172-0.384,0.383-0.384h2.352c0.213,0,0.385,0.172,0.385,0.384V10.887z"/>
		<path d="M23.138,10.903h-2.197V9.939c0-0.227,0.184-0.409,0.41-0.409h1.379c0.225,0,0.408,0.183,0.408,0.409V10.903z"/>
		<rect x="9.912" y="13.36" fill="#424242" width="1.363" height="6.425"/>
		<path fill="#FFFFFF" d="M22.949,10.877h-2.154c-0.188-0.884-0.971-1.547-1.91-1.547h-2.861c-0.939,0-1.723,0.663-1.91,1.547
			h-3.047c-1.078,0-1.953,0.875-1.953,1.954l0,0h15.791l0,0C24.904,11.752,24.029,10.877,22.949,10.877z"/>
		<g>
			<path fill="#212121" d="M19.396,11.73h-3.885c-0.371,0-0.674-0.304-0.674-0.674v-0.521c0-0.37,0.303-0.673,0.674-0.673h3.885
				c0.371,0,0.674,0.303,0.674,0.673v0.521C20.07,11.426,19.767,11.73,19.396,11.73z"/>
			<path fill="#424242" d="M19.246,11.5h-3.584c-0.279,0-0.508-0.229-0.508-0.508v-0.394c0-0.279,0.229-0.509,0.508-0.509h3.584
				c0.279,0,0.51,0.229,0.51,0.509v0.394C19.755,11.272,19.525,11.5,19.246,11.5z"/>
			<path fill="#FFFFFF" d="M18.203,11.101h-1.498c-0.121,0-0.219-0.1-0.219-0.22V10.71c0-0.121,0.098-0.22,0.219-0.22h1.498
				c0.121,0,0.219,0.099,0.219,0.22v0.171C18.421,11.001,18.324,11.101,18.203,11.101z"/>
		</g>
		<circle fill="#424242" cx="17.455" cy="16.573" r="4.236"/>
		<circle fill="#212121" cx="17.455" cy="16.573" r="3.906"/>
		<circle fill="#424242" cx="17.454" cy="16.573" r="3.218"/>
		<circle fill="#93D3E2" cx="17.454" cy="16.573" r="2.821"/>
		<circle fill="#A2E9FD" cx="17.454" cy="16.573" r="2.069"/>
		<circle fill="#FFFFFF" cx="17.274" cy="16.224" r="0.349"/>
		<circle fill="#FFFFFF" cx="16.198" cy="15.528" r="0.728"/>
	</g>
</g>
</svg>
