<?xml version="1.0" encoding="utf-8"?>
<!-- Generator: Adobe Illustrator 16.0.0, SVG Export Plug-In . SVG Version: 6.00 Build 0)  -->
<!DOCTYPE svg PUBLIC "-//W3C//DTD SVG 1.1//EN" "http://www.w3.org/Graphics/SVG/1.1/DTD/svg11.dtd">
<svg version="1.1" id="圖層_1" xmlns="http://www.w3.org/2000/svg" xmlns:xlink="http://www.w3.org/1999/xlink" x="0px" y="0px"
	 width="34.016px" height="34.016px" viewBox="0 0 34.016 34.016" enable-background="new 0 0 34.016 34.016" xml:space="preserve">
<g>
	<g id="shopping_cart_1_">
		<circle fill="#153768" cx="17.008" cy="17.008" r="15"/>
	</g>
	<path fill="#0E2D5B" d="M18.672,14.554l-3.911-3.912l-3.544,3.544l3.34,3.34l-6.482,4.681l9.773,9.775
		c6.859-0.379,12.49-5.365,13.848-11.918l-8.662-8.66L18.672,14.554z"/>
	<g id="binoculars">
		<g>
			<path fill="#5D6D7D" d="M16.493,13.152l-0.615,0.392l-0.33,3.917l1.461-1.245v-3.213C16.829,13.001,16.65,13.052,16.493,13.152z"
				/>
			<path fill="#45455E" d="M18.139,13.543l-0.615-0.392c-0.157-0.1-0.336-0.15-0.516-0.15v3.213l1.461,1.245L18.139,13.543z"/>
		</g>
		<path fill="#5D6D7D" d="M14.647,19.573l-0.028-0.029c-0.366-0.364-0.366-0.964,0-1.329l1.725-1.726
			c0.366-0.366,0.964-0.366,1.329,0l0.029,0.028c0.365,0.365,0.365,0.964,0,1.329l-1.726,1.726
			C15.61,19.938,15.012,19.938,14.647,19.573z"/>
		<path fill="#5D6D7D" d="M19.397,19.543l-0.027,0.029c-0.365,0.365-0.963,0.365-1.33,0l-1.725-1.726
			c-0.365-0.365-0.365-0.964,0-1.329l0.028-0.028c0.366-0.366,0.964-0.366,1.329,0l1.725,1.726
			C19.764,18.58,19.764,19.179,19.397,19.543z"/>
		<path fill="#5D6D7D" d="M24.829,14.788l0.004-0.001l-2.262-3.504l-0.002,0.001c-0.348-0.698-1.064-1.178-1.898-1.178
			c-1.172,0-2.121,0.95-2.121,2.122c0,0.125,0.354,4.168,0.354,4.168s0,0,0,0c0,1.758,1.426,3.183,3.184,3.183
			s3.184-1.424,3.184-3.183C25.27,15.808,25.108,15.26,24.829,14.788z"/>
		<path fill="#5D6D7D" d="M15.467,12.227c0-1.172-0.95-2.122-2.122-2.122c-0.833,0-1.551,0.48-1.898,1.178l-0.002-0.001
			l-2.262,3.504l0.004,0.001c-0.278,0.472-0.44,1.021-0.44,1.608c0,1.758,1.426,3.183,3.184,3.183s3.184-1.424,3.184-3.183
			c0,0,0,0,0,0S15.467,12.352,15.467,12.227z"/>
		<g>
			<path fill="#5D6D7D" d="M13.003,10.573c-1.13,0-2.104,0.652-2.577,1.599l-0.002,0l-3.069,4.755l0.005,0.001
				c-0.377,0.642-0.597,1.386-0.597,2.183c0,1.919,1.253,3.544,2.983,4.106l4.075-12.524C13.562,10.616,13.288,10.573,13.003,10.573
				z"/>
			<path fill="#45455E" d="M15.883,13.453c0-1.306-0.87-2.407-2.062-2.76L9.747,23.217c0.422,0.137,0.87,0.213,1.337,0.213
				c2.386,0,4.319-1.934,4.319-4.319l0,0C15.403,19.111,15.883,13.623,15.883,13.453z"/>
		</g>
		<g>
			<path fill="#5D6D7D" d="M18.133,13.453c0,0.169,0.48,5.658,0.48,5.658h-0.002c0,2.386,1.936,4.319,4.32,4.319
				c0.467,0,0.916-0.076,1.338-0.213l-4.076-12.524C19.002,11.046,18.133,12.147,18.133,13.453z"/>
			<path fill="#45455E" d="M27.252,19.111c0-0.797-0.219-1.542-0.596-2.183l0.004-0.001l-3.068-4.755l-0.002,0
				c-0.473-0.947-1.447-1.599-2.578-1.599c-0.283,0-0.559,0.043-0.818,0.12l4.076,12.524C26,22.655,27.252,21.03,27.252,19.111z"/>
		</g>
		<g>
			<path fill="#45455E" d="M11.083,23.43c-2.382,0-4.32-1.938-4.32-4.319c0-2.382,1.938-4.32,4.32-4.32s4.319,1.938,4.319,4.32
				C15.403,21.493,13.465,23.43,11.083,23.43z"/>
			<path fill="#A2E9FD" d="M11.083,22.231c-1.721,0-3.12-1.4-3.12-3.12c0-1.72,1.399-3.12,3.12-3.12c1.72,0,3.12,1.4,3.12,3.12
				C14.204,20.831,12.803,22.231,11.083,22.231z"/>
			<path fill="#45455E" d="M22.932,23.43c-2.381,0-4.318-1.938-4.318-4.319c0-2.382,1.938-4.32,4.318-4.32
				c2.383,0,4.32,1.938,4.32,4.32C27.252,21.493,25.315,23.43,22.932,23.43z"/>
			<path fill="#A2E9FD" d="M22.932,22.231c-1.721,0-3.119-1.4-3.119-3.12c0-1.72,1.398-3.12,3.119-3.12s3.121,1.4,3.121,3.12
				C26.053,20.831,24.653,22.231,22.932,22.231z"/>
			<g>
				<circle fill="#93D3E2" cx="11.083" cy="19.111" r="3.274"/>
				<circle fill="#A2E9FD" cx="11.083" cy="19.111" r="2.401"/>
				<circle fill="#FFFFFF" cx="10.875" cy="18.707" r="0.405"/>
				<circle fill="#FFFFFF" cx="9.626" cy="17.897" r="0.844"/>
			</g>
			<g>
				<circle fill="#93D3E2" cx="22.933" cy="19.111" r="3.274"/>
				<circle fill="#A2E9FD" cx="22.933" cy="19.111" r="2.401"/>
				<circle fill="#FFFFFF" cx="22.725" cy="18.707" r="0.404"/>
				<circle fill="#FFFFFF" cx="21.476" cy="17.897" r="0.845"/>
			</g>
		</g>
		<circle fill="#FFFFFF" cx="9.716" cy="17.794" r="0.36"/>
		<circle fill="#FFFFFF" cx="21.631" cy="17.794" r="0.359"/>
		<path fill="#EEEEEF" d="M16.753,17.686c-0.141-0.141-0.141-0.369,0-0.51s0.369-0.141,0.51,0L16.753,17.686z"/>
		<path fill="#C8C7CD" d="M17.263,17.176c0.141,0.141,0.141,0.369,0,0.51s-0.369,0.141-0.51,0L17.263,17.176z"/>
	</g>
</g>
</svg>
