<?xml version="1.0" encoding="utf-8"?>
<!-- Generator: Adobe Illustrator 16.0.0, SVG Export Plug-In . SVG Version: 6.00 Build 0)  -->
<!DOCTYPE svg PUBLIC "-//W3C//DTD SVG 1.1//EN" "http://www.w3.org/Graphics/SVG/1.1/DTD/svg11.dtd">
<svg version="1.1" id="圖層_1" xmlns="http://www.w3.org/2000/svg" xmlns:xlink="http://www.w3.org/1999/xlink" x="0px" y="0px"
	 width="34.016px" height="34.016px" viewBox="0 0 34.016 34.016" enable-background="new 0 0 34.016 34.016" xml:space="preserve">
<path fill="#153768" d="M32.007,17.008c0,1.577-0.242,3.097-0.693,4.521c-1.92,6.074-7.598,10.478-14.307,10.478
	c-0.26,0-0.521-0.006-0.775-0.021C8.308,31.585,2.007,25.033,2.007,17.008c0-8.283,6.717-15,15-15
	C25.292,2.008,32.007,8.725,32.007,17.008z"/>
<path fill="#0E2D5B" d="M32.008,16.946c0-0.915-0.095-1.806-0.252-2.675c-3.565-3.564-6.256-6.251-6.271-6.259
	c-0.059-0.105-0.19-0.16-0.323-0.124l-1.659,0.452c-0.152,0.042-0.246,0.188-0.208,0.328l0.073,0.27L13.28,11.688
	c-0.227,0.062-0.379,0.225-0.342,0.364l0.271,0.986l-4.302,1.173c-0.008-0.007-0.229-0.227-0.256-0.242
	c-0.067-0.12-0.235-0.181-0.404-0.135L7.29,14.096c-0.193,0.054-0.315,0.224-0.272,0.382c0.848,3.104,0.768,2.929,0.898,3.011
	c0,0,4.552,4.55,4.617,4.626c-2.349,3.391-2.303,3.232-2.255,3.492c0.021,0.119,0.088,0.221,0.184,0.291
	c0,0.001,2.571,2.572,6.021,6.021c0.176,0.006,0.348,0.026,0.525,0.026C25.292,31.946,32.008,25.23,32.008,16.946z"/>
<g>
	<g>
		
			<rect x="8.45" y="13.553" transform="matrix(-0.9648 0.2631 -0.2631 -0.9648 26.4729 26.0371)" fill="#EB7373" width="6.087" height="2.476"/>
		
			<rect x="8.612" y="14.769" transform="matrix(-0.9648 0.2631 -0.2631 -0.9648 26.949 27.1683)" fill="#E65A5A" width="6.088" height="1.238"/>
		<path fill="#FFF0DC" d="M9.454,16.883c0.043,0.158-0.079,0.329-0.272,0.383l-0.956,0.261c-0.192,0.053-0.385-0.032-0.43-0.19
			l-0.779-2.858c-0.043-0.158,0.079-0.328,0.272-0.382l0.956-0.262c0.193-0.053,0.386,0.033,0.429,0.19L9.454,16.883z"/>
		<path fill="#FFE1BE" d="M9.064,15.455l-1.656,0.451l0.389,1.43c0.045,0.158,0.236,0.243,0.43,0.19l0.956-0.261
			c0.193-0.054,0.315-0.225,0.272-0.383L9.064,15.455z"/>
		<path fill="#FFF0DC" d="M25.693,13.534l-11.085,3.022c-0.227,0.062-0.44-0.001-0.479-0.142l-1.189-4.363
			c-0.037-0.141,0.115-0.304,0.343-0.364l11.086-3.022L25.693,13.534z"/>
		<path fill="#FFE1BE" d="M25.029,11.1l-11.494,3.135l0.594,2.182c0.039,0.141,0.254,0.202,0.479,0.142l11.085-3.022L25.029,11.1z"
			/>
		<path fill="#A2E9FD" d="M27,13.531c0.037,0.14-0.058,0.287-0.209,0.328l-1.66,0.453c-0.152,0.042-0.31-0.037-0.346-0.178
			l-1.49-5.467c-0.038-0.14,0.056-0.286,0.208-0.328l1.659-0.452c0.153-0.041,0.309,0.037,0.348,0.178L27,13.531z"/>
		<path fill="#93D3E2" d="M26.253,10.796l-2.214,0.604l0.745,2.732c0.036,0.141,0.192,0.22,0.346,0.178l1.66-0.453
			c0.151-0.041,0.246-0.188,0.209-0.328L26.253,10.796z"/>
	</g>
	<path fill="#FFD25A" d="M17.054,26.016c-0.255,0-0.464-0.209-0.464-0.466v-9.439c0-0.256,0.209-0.464,0.464-0.464
		c0.257,0,0.464,0.208,0.464,0.464v9.439C17.518,25.807,17.311,26.016,17.054,26.016z"/>
	<path fill="#FFB43C" d="M17.054,15.647v10.369c0.257,0,0.464-0.209,0.464-0.466v-9.439C17.518,15.855,17.311,15.647,17.054,15.647
		L17.054,15.647z"/>
	<path fill="#FFB43C" d="M23.374,25.99c-0.152,0-0.295-0.076-0.382-0.201l-5.823-8.408c-0.07-0.102-0.099-0.226-0.075-0.347
		c0.022-0.122,0.091-0.229,0.192-0.299c0.077-0.055,0.17-0.083,0.264-0.083c0.153,0,0.296,0.075,0.383,0.2l5.823,8.409
		c0.071,0.102,0.097,0.225,0.075,0.346c-0.022,0.123-0.091,0.229-0.192,0.299C23.559,25.96,23.468,25.99,23.374,25.99z"/>
	<path fill="#FFD25A" d="M10.735,25.99c-0.094,0-0.186-0.029-0.264-0.084c-0.102-0.07-0.17-0.176-0.192-0.299
		c-0.021-0.121,0.006-0.244,0.075-0.346l5.823-8.409c0.087-0.125,0.229-0.2,0.382-0.2c0.095,0,0.187,0.028,0.265,0.082
		c0.103,0.071,0.171,0.178,0.192,0.3c0.021,0.121-0.004,0.245-0.075,0.347l-5.822,8.408C11.031,25.913,10.887,25.99,10.735,25.99z"
		/>
	<circle fill="#A2E9FD" cx="17.055" cy="16.11" r="1.561"/>
	<path fill="#93D3E2" d="M17.054,14.55v3.12c0.862,0,1.563-0.697,1.563-1.561C18.616,15.249,17.917,14.55,17.054,14.55L17.054,14.55
		z"/>
</g>
</svg>
